<?xml version="1.0" encoding="utf-8"?>
<!-- Generator: Adobe Illustrator 18.1.1, SVG Export Plug-In . SVG Version: 6.00 Build 0)  -->
<svg version="1.1" id="Layer_1" xmlns="http://www.w3.org/2000/svg" xmlns:xlink="http://www.w3.org/1999/xlink" x="0px" y="0px"
	 viewBox="0.1 302.6 360 35" enable-background="new 0.1 302.6 360 35" xml:space="preserve">
<g>
	<path fill="#F1F2F3" d="M0.1,337.6c0-11.7,0-23.3,0-35c120,0,240,0,360,0c0,11.7,0,23.3,0,35C240.1,337.6,120.1,337.6,0.1,337.6z
		 M0.4,331.7c0,1.1,0,2.3,0,3.4c0,0.4-0.1,0.4,0.4,0.6c1.4,0.5,2.8,0.9,4.2,1.2c2.3,0.4,4.5,0.7,6.9,0.3c1.6-0.3,3.2-0.7,4.6-1.6
		c1.9-1.1,3.2-2.6,3.9-4.7c0.5-1.4,0.6-2.9,0.4-4.4c-0.2-1.2-0.7-2.3-1.5-3.2c-0.7-0.8-1.5-1.4-2.4-2c-1.2-0.7-2.4-1.2-3.6-1.6
		c-1.4-0.5-2.7-0.9-4.1-1.5c-1-0.4-2-1-2.9-1.8c-1.1-1-1.4-2.2-1.1-3.6c0.2-0.8,0.7-1.4,1.3-1.9c1.1-0.9,2.5-1.3,3.9-1.3
		c1.6,0,3.2,0.2,4.7,0.6c0.3,0.1,0.4,0.2,0.5,0.5c0.4,1.3,0.8,2.6,1.2,3.9C17,315,17,315,17.3,315c0.7,0,1.4,0,2.2,0
		c0.3,0,0.4,0,0.4-0.3c0.1-2.2,0.1-4.5,0.2-6.7c0-0.4,0.1-0.4-0.4-0.5c-1.4-0.4-2.8-0.8-4.2-1.1c-2.2-0.4-4.4-0.7-6.6-0.4
		c-1.3,0.2-2.6,0.5-3.8,1.1c-2.2,1.1-3.7,2.7-4.3,5.1c-0.3,1.1-0.3,2.2-0.2,3.3c0.1,1.4,0.6,2.7,1.5,3.8c0.9,1.1,2,1.9,3.2,2.5
		c1.6,0.8,3.2,1.5,4.9,2c1.1,0.4,2.1,0.7,3.1,1.2c0.8,0.4,1.5,0.9,2.1,1.5c0.4,0.4,0.7,0.9,0.8,1.5c0.3,1.3,0,2.4-0.9,3.4
		c-0.7,0.8-1.6,1.3-2.6,1.6c-1.6,0.5-3.2,0.6-4.8,0.3c-0.8-0.1-1.7-0.3-2.4-0.7c-0.6-0.2-0.6-0.2-0.7-0.8c-0.2-1.2-0.5-2.5-0.7-3.7
		c0-0.2-0.1-0.3-0.4-0.3c-0.9,0-1.9,0-2.8,0c-0.4,0-0.4,0-0.4,0.4C0.4,329.4,0.4,330.6,0.4,331.7z M104,316.9c0,0.1,0,0.2,0,0.2
		c-1,1.7-2,3.4-3,5.1c-0.1,0.2-0.3,0.2-0.4,0.2c-1,0-1.9,0-2.9,0c-0.6,0-0.6,0.1-0.6-0.6c0-6,0-12,0-18.1c0-0.1,0-0.2,0-0.4
		c0-0.2-0.1-0.2-0.2-0.2c-0.1,0-0.1,0-0.2,0c-1.8,0-3.6,0.1-5.4,0.1c-0.6,0-1.2,0-1.8,0.1c-0.3,0-0.3,0-0.3,0.4c0,0.6,0,1.2,0,1.8
		c0,0.2,0.1,0.3,0.3,0.4c1,0.2,2,0.5,3,0.7c0.4,0.1,0.4,0.1,0.4,0.5c0,8.6,0,17.3,0,25.9c0,0.4,0,0.4-0.4,0.5c-1,0.3-2,0.6-2.9,0.9
		c-0.4,0.1-0.4,0.1-0.4,0.5c0,0.5,0,1.1,0,1.6c0,0.4,0,0.4,0.4,0.4c0.1,0,0.1,0,0.2,0c3.3,0,6.5,0,9.8,0c0.1,0,0.2,0,0.3,0
		c0.2,0,0.3-0.1,0.3-0.3c0-0.6,0-1.2,0-1.8c0-0.2-0.1-0.3-0.3-0.4c-0.8-0.3-1.5-0.6-2.3-0.9c-0.2-0.1-0.3-0.2-0.3-0.4
		c0-2.3,0-4.6,0-6.9c0-0.4,0-0.4,0.4-0.4c1,0,2,0,3,0c0.3,0,0.5,0.1,0.6,0.4c1.2,2.2,2.5,4.5,3.7,6.7c0.7,1.3,1.4,2.5,2.1,3.8
		c0.1,0.2,0.2,0.3,0.4,0.3c1.8,0,3.5,0,5.3,0c0.3,0,0.3,0,0.3-0.3c0-0.6,0-1.2,0-1.8c0-0.3-0.1-0.4-0.3-0.4
		c-0.9-0.3-1.8-0.6-2.7-0.9c-0.2-0.1-0.3-0.2-0.5-0.4c-1.8-3.1-3.5-6.2-5.3-9.3c-0.1-0.2-0.1-0.4,0-0.6c1.4-2,2.7-4,4.1-6.1
		c0.2-0.3,0.4-0.4,0.7-0.4c0.8-0.1,1.6-0.3,2.3-0.4c0.4-0.1,0.4-0.1,0.4-0.4c0-0.6,0-1.3,0-1.9c0-0.4,0-0.4-0.4-0.4
		c-1.1,0-2.1,0.1-3.2,0.1c-1.9,0-3.7,0.1-5.6,0.1c-0.1,0-0.1,0-0.2,0c-0.2,0-0.3,0.1-0.3,0.3c0,0.6,0,1.1,0,1.7c0,0.4,0,0.4,0.4,0.5
		c0.1,0,0.2,0.1,0.3,0.1C103.2,316.7,103.6,316.8,104,316.9z M214.5,337.2c0.8,0,1.5,0,2.2-0.1c0.4-0.1,0.9-0.1,1.3-0.3
		c2.5-0.6,4.5-2,5.9-4.2c1.1-1.7,1.5-3.7,1.7-5.7c0.1-1.1,0.1-2.2,0-3.4c-0.1-1.5-0.4-3-1-4.5c-1-2.4-2.7-4.2-5.2-5.2
		c-1.2-0.5-2.5-0.7-3.8-0.8c-1.6-0.1-3.1,0-4.7,0.4c-2.9,0.7-5.1,2.5-6.4,5.3c-0.7,1.5-1,3.1-1.1,4.8c-0.1,1-0.1,1.9,0,2.9
		c0.1,1.5,0.3,3,0.9,4.5c1.1,2.9,3.2,4.8,6.1,5.8C211.9,337.1,213.3,337.2,214.5,337.2z M184,325.2c0-2.1-0.2-4.1-1-6
		c-1.1-2.8-3.1-4.7-6-5.6c-2.6-0.8-5.3-0.8-8-0.1c-3,0.8-5.2,2.7-6.3,5.6c-0.5,1.4-0.8,2.8-0.9,4.2c-0.2,2.1-0.1,4.2,0.5,6.2
		c1,3.8,3.4,6.3,7.3,7.2c2,0.5,4.1,0.5,6.1,0.1c1.2-0.2,2.4-0.6,3.5-1.3c2-1.2,3.3-2.9,4-5.1C183.8,328.8,184,327,184,325.2z
		 M336.4,325.2c0-3.7,0-7.5,0-11.2c0-0.5,0-0.5-0.5-0.5c-1.4,0-2.8,0-4.1,0c-0.3,0-0.3,0-0.4,0.3c0,0.1,0,0.2,0,0.3c0,2.7,0,5.3,0,8
		c0,0.1,0,0.2,0,0.4c0,0.2-0.1,0.3-0.2,0.2c-0.1,0-0.2,0-0.3,0c-2.7,0-5.4,0-8.2,0c-0.6,0-0.5,0.1-0.5-0.5c0-2.7,0-5.4,0-8.2
		c0-0.5,0-0.5-0.5-0.5c-1.3,0-2.6,0-3.9,0c-0.7,0-0.6,0-0.6,0.6c0,6.7,0,13.3,0,20c0,0.8,0,1.7,0,2.5c0,0.4,0,0.4,0.4,0.4
		c1.4,0,2.8,0,4.3,0c0.3,0,0.3,0,0.4-0.3c0-0.1,0-0.2,0-0.3c0-3,0-5.9,0-8.9c0-0.1,0-0.2,0-0.4c0-0.2,0.1-0.3,0.3-0.3
		c0.1,0,0.2,0,0.3,0c2.7,0,5.4,0,8.2,0c0.6,0,0.5,0,0.5,0.6c0,3,0,6.1,0,9.1c0,0.4,0,0.4,0.4,0.4c1.4,0,2.8,0,4.1,0
		c0.4,0,0.4,0,0.4-0.4c0-0.1,0-0.2,0-0.3C336.4,332.5,336.4,328.9,336.4,325.2z M138.3,325.1c0,3.7,0,7.5,0,11.2
		c0,0.6-0.1,0.5,0.6,0.5c1.3,0,2.5,0,3.8,0c0.7,0,0.6,0.1,0.6-0.6c0-3,0-6,0-9.1c0-0.4,0-0.4,0.4-0.4c0,0,0,0,0,0c2.8,0,5.6,0,8.3,0
		c0.5,0,0.5,0,0.5,0.5c0,3,0,6.1,0,9.1c0,0.1,0,0.2,0,0.4c0,0.1,0.1,0.2,0.2,0.2c0.1,0,0.2,0,0.4,0c1.3,0,2.6,0,3.9,0
		c0.6,0,0.5,0.1,0.5-0.5c0-7.5,0-14.9,0-22.4c0-0.1,0-0.2,0-0.3c0-0.1-0.1-0.2-0.2-0.2c-0.1,0-0.2,0-0.3,0c-1.3,0-2.6,0-3.9,0
		c-0.6,0-0.5,0-0.5,0.5c0,2.7,0,5.5,0,8.2c0,0.4,0,0.4-0.4,0.4c-0.1,0-0.1,0-0.2,0c-2.7,0-5.4,0-8.1,0c-0.7,0-0.6,0.1-0.6-0.6
		c0-2.7,0-5.4,0-8.2c0-0.4,0-0.4-0.4-0.4c-1.3,0-2.7,0-4,0c-0.6,0-0.5,0-0.5,0.5C138.3,317.7,138.3,321.4,138.3,325.1z M272.3,336.8
		c0-0.1-0.1-0.2-0.1-0.3c-2.1-3.1-4.2-6.2-6.3-9.4c-0.1-0.1-0.2-0.2-0.3-0.4c-0.1-0.1-0.1-0.2,0.1-0.3c0.3-0.2,0.6-0.3,0.9-0.5
		c1.6-1,2.7-2.3,3.1-4.1c0.3-1.4,0.2-2.9-0.3-4.2c-0.4-1.2-1.2-2.2-2.3-2.9c-0.7-0.4-1.4-0.7-2.2-0.9c-1.4-0.4-2.9-0.5-4.4-0.5
		c-2.1,0-4.2,0-6.3,0c-0.1,0-0.2,0-0.3,0c-0.2,0-0.3,0.1-0.2,0.2c0,0.1,0,0.2,0,0.3c0,7.5,0,14.9,0,22.4c0,0.1,0,0.2,0,0.4
		c0,0.1,0.1,0.2,0.2,0.2c0.1,0,0.2,0,0.4,0c1.3,0,2.5,0,3.8,0c0.7,0,0.6,0.1,0.6-0.6c0-2.6,0-5.2,0-7.9c0-0.6-0.1-0.5,0.5-0.5
		s1.1,0,1.7,0c0.3,0,0.5,0.1,0.7,0.4c1.7,2.8,3.4,5.5,5.1,8.2c0.2,0.3,0.4,0.4,0.7,0.4c1.5,0,3.1,0,4.6,0
		C272.1,336.9,272.2,336.9,272.3,336.8z M248.1,329.8c0-1.9,0-3.8,0-5.7c0-0.4,0-0.4-0.4-0.4c-2.8,0-5.7,0-8.5,0
		c-0.4,0-0.4,0-0.4,0.4c0,1.1,0,2.2,0,3.3c0,0.4,0,0.4,0.5,0.4c1.2,0,2.4,0,3.6,0c0.4,0,0.4,0,0.4,0.4c0,1.4,0,2.8,0,4.1
		c0,0.1,0,0.1,0,0.2c0,0.1-0.1,0.2-0.2,0.2c-0.1,0-0.2,0-0.3,0.1c-1.1,0.2-2.3,0.3-3.5,0.2c-0.9-0.1-1.8-0.3-2.6-0.9
		c-1-0.7-1.7-1.7-2.1-2.8c-0.3-0.8-0.5-1.7-0.6-2.6c-0.1-1.6-0.1-3.2,0.4-4.7c0.6-1.9,1.8-3.4,3.7-4.2c1.4-0.6,2.8-0.6,4.3-0.5
		c1.3,0.1,2.5,0.5,3.7,1c0.3,0.1,0.3,0.1,0.4-0.2c0.4-1.1,0.9-2.1,1.3-3.2c0.2-0.4,0.2-0.5-0.3-0.6c-1.5-0.6-3.1-1-4.7-1.2
		c-1.9-0.2-3.7-0.1-5.5,0.3c-1.9,0.4-3.7,1.3-5.1,2.6c-2,1.9-3,4.3-3.3,7c-0.2,1.4-0.1,2.7,0,4.1c0.1,1.3,0.4,2.7,0.9,3.9
		c0.8,1.9,2,3.5,3.7,4.5c1.6,0.9,3.3,1.4,5.1,1.5c1.1,0.1,2.3,0,3.4-0.1c1.9-0.2,3.7-0.5,5.5-1.1c0.4-0.1,0.4-0.1,0.4-0.5
		C248.1,333.6,248.1,331.7,248.1,329.8z M295.7,336.9c-0.1-0.2-0.1-0.3-0.1-0.4c-1.6-4.6-3.3-9.3-4.9-13.9c-1-2.9-2.1-5.9-3.1-8.8
		c-0.2-0.4-0.1-0.4-0.6-0.4c-1.1,0-2.2,0-3.3,0c-0.7,0-1.3,0-2,0c-0.2,0-0.3,0.1-0.4,0.3c0,0.1-0.1,0.2-0.1,0.4c-1,3-2.1,6-3.1,8.9
		c-1.6,4.5-3.2,9-4.7,13.5c0,0.1-0.1,0.3-0.1,0.4c0.1,0,0.2,0,0.3,0c1.5,0,3,0,4.5,0c0.4,0,0.4,0,0.6-0.4c0.5-1.6,1-3.2,1.5-4.8
		c0.1-0.4,0.1-0.4,0.5-0.4c2.6,0,5.2,0,7.7,0c0.4,0,0.4,0,0.5,0.4c0.5,1.6,1,3.2,1.5,4.8c0.1,0.4,0.1,0.4,0.5,0.4c1.4,0,2.8,0,4.2,0
		C295.1,336.9,295.3,336.9,295.7,336.9z M53,337.3c0.4,0,1.1,0,1.7-0.1c2.1-0.3,4-1.2,5.6-2.7c2-1.9,3-4.3,3.5-7
		c0.2-1.4,0.2-2.9,0.1-4.3c-0.1-1.5-0.4-2.9-1-4.2c-1.1-2.6-3-4.4-5.7-5.2c-1.6-0.5-3.2-0.6-4.8-0.4c-2.4,0.3-4.5,1.2-6.3,2.9
		c-1.7,1.7-2.7,3.7-3.1,6.1c-0.3,1.6-0.4,3.2-0.3,4.8c0.1,1.3,0.3,2.6,0.7,3.8c0.9,2.5,2.5,4.4,5,5.5
		C49.7,337.1,51.2,337.3,53,337.3z M298.6,325.2c0,3.7,0,7.5,0,11.2c0,0.5,0,0.5,0.5,0.5c1.3,0,2.6,0,4,0c0.6,0,0.5,0,0.5-0.5
		c0-2.5,0-4.9,0-7.4c0-0.4,0-0.4,0.4-0.4c0.8,0,1.6,0,2.4,0c1.4,0,2.7-0.3,4-0.8c2-0.8,3.4-2.2,4-4.4c0.4-1.2,0.4-2.4,0.3-3.7
		c-0.1-1.3-0.5-2.5-1.3-3.5c-0.8-1.1-1.9-1.7-3.2-2.2c-1.3-0.5-2.7-0.6-4.1-0.6c-2.3,0-4.7,0-7,0c-0.5,0-0.5,0-0.5,0.5
		C298.6,317.7,298.6,321.4,298.6,325.2z M119.1,325.2c0,3.8,0,7.5,0,11.3c0,0.4,0,0.4,0.4,0.4c1.3,0,2.7,0,4,0c0.6,0,0.5,0,0.5-0.5
		c0-2.4,0-4.9,0-7.3c0-0.5,0-0.5,0.5-0.5c1.1,0,2.2,0,3.2-0.1c1.1-0.1,2.1-0.3,3.2-0.7c2.1-0.9,3.5-2.4,4.1-4.7
		c0.3-1.2,0.3-2.4,0.2-3.5c-0.1-0.9-0.4-1.9-0.9-2.7c-0.8-1.4-2.1-2.2-3.6-2.7c-1.4-0.5-2.8-0.6-4.2-0.6c-2.3,0-4.6,0-6.9,0
		c-0.6,0-0.5,0-0.5,0.5C119.1,317.7,119.1,321.4,119.1,325.2z M85.6,331.2c-0.2,0-0.3,0.1-0.3,0.2c-0.4,0.4-0.8,0.7-1.3,1
		c-1.9,1-3.9,1.5-6.1,1.3c-1.1-0.1-2.2-0.5-3-1.2c-1.1-0.9-1.8-2.1-2.2-3.5c-0.5-1.7-0.6-3.5-0.5-5.2c0.1-1.1,0.2-2.3,0.7-3.3
		c0.8-1.9,2.1-3.1,4.1-3.5c1.8-0.4,3.6-0.2,5.4,0.2c0.2,0,0.3,0.1,0.3,0.3c0.1,0.3,0.1,0.7,0.2,1c0.1,0.7,0.3,1.4,0.4,2.1
		c0,0.2,0.1,0.3,0.3,0.3c0.8,0,1.5,0,2.3,0c0.2,0,0.3-0.1,0.3-0.3c0-0.6,0-1.2,0.1-1.8c0-1.2,0.1-2.3,0.1-3.5c0-0.4,0-0.4-0.3-0.6
		c-1.4-0.6-2.8-1-4.3-1.3c-1.6-0.3-3.3-0.4-4.9-0.1c-3.4,0.6-6.1,2.4-7.7,5.5c-1.4,2.5-1.7,5.3-1.5,8.1c0.1,1.2,0.3,2.3,0.7,3.4
		c0.7,2.2,1.9,4,3.9,5.3c2,1.3,4.3,1.7,6.7,1.6c1.2,0,2.3-0.4,3.5-0.7c1.7-0.6,3.2-1.4,4.6-2.5c0.3-0.2,0.3-0.2,0.1-0.6
		c-0.3-0.5-0.6-1.1-0.9-1.6C85.8,331.7,85.7,331.4,85.6,331.2z M339.4,313.5c0,0.2,0.1,0.3,0.2,0.5c2.4,4.5,4.8,9,7.3,13.5
		c0.1,0.3,0.2,0.5,0.2,0.8c0,2.7,0,5.4,0,8.1c0,0.4,0,0.4,0.4,0.4c1.4,0,2.8,0,4.2,0c0.4,0,0.4,0,0.4-0.4c0-0.1,0-0.2,0-0.3
		c0-2.7,0-5.4,0-8.1c0-0.2,0-0.5,0.1-0.7c1.3-2.4,2.7-4.9,4-7.3c1.1-2.1,2.3-4.2,3.4-6.3c0.1-0.1,0.2-0.2,0.1-0.4
		c-0.1-0.1-0.3,0-0.4,0c-1.5,0-2.9,0-4.4,0c-0.3,0-0.5,0.1-0.7,0.4c-1.5,2.9-2.9,5.8-4.4,8.7c-0.1,0.1-0.1,0.3-0.3,0.4
		c-0.2-0.1-0.2-0.3-0.3-0.5c-1.5-2.9-2.9-5.8-4.4-8.7c-0.1-0.3-0.3-0.4-0.6-0.4c-1.5,0-2.9,0-4.4,0
		C339.7,313.5,339.6,313.4,339.4,313.5z M28.7,324.8c0,2.1,0,4.2,0,6.2c0,0.8,0,1.5,0.2,2.3c0.2,1.2,0.7,2.3,1.8,3.1
		c1,0.7,2.1,1,3.2,0.9c2.1-0.1,4-0.8,5.7-2c0.2-0.1,0.2-0.2,0.1-0.4c-0.3-0.6-0.6-1.2-0.9-1.8c-0.1-0.2-0.2-0.3-0.4-0.1
		c-0.1,0.1-0.3,0.2-0.5,0.2c-0.7,0.3-1.5,0.6-2.3,0.7c-1.5,0.1-2.3-0.5-2.5-1.9c0-0.3,0-0.6,0-0.9c0-4.4,0-8.9,0-13.3
		c0-0.1,0-0.2,0-0.3c0-0.1,0.1-0.2,0.2-0.2c0.1,0,0.2,0,0.3,0c1.8,0,3.5,0,5.3,0c0.1,0,0.2,0,0.3,0c0.2,0,0.2-0.1,0.2-0.2
		c0-0.9,0-1.9,0-2.8c0-0.2-0.1-0.2-0.2-0.2c-0.1,0-0.2,0-0.4,0c-1.8,0-3.6,0-5.4,0c-0.4,0-0.4,0-0.4-0.4c0-0.1,0-0.2,0-0.3
		c0-1.7,0-3.5,0-5.2c0-0.6,0-0.5-0.5-0.4c-1.2,0.2-2.4,0.5-3.5,0.7c-0.4,0.1-0.4,0.1-0.4,0.5c0,1.5,0,3.1,0,4.6c0,0.1,0,0.2,0,0.3
		c0,0.1-0.1,0.2-0.2,0.2c-0.1,0-0.2,0-0.3,0c-1.2,0.1-2.4,0.2-3.7,0.4c-0.2,0-0.3,0.1-0.3,0.3c0,0.7,0,1.5,0,2.2
		c0,0.3,0,0.3,0.3,0.3c1.2,0,2.4,0,3.6,0c0.5,0,0.5,0,0.5,0.5C28.7,320,28.7,322.4,28.7,324.8z M196.5,327.2c0-3,0-6,0-9
		c0-0.1,0-0.2,0-0.4c0-0.2,0.1-0.3,0.3-0.3c0.1,0,0.2,0,0.3,0c1.8,0,3.6,0,5.4,0c0.4,0,0.4,0,0.4-0.4c0-1.1,0-2.1,0-3.2
		c0-0.5,0-0.5-0.5-0.5c-4,0-8.1,0-12.1,0c-1.6,0-3.1,0-4.7,0c-0.4,0-0.4,0-0.4,0.4c0,1.1,0,2.1,0,3.2c0,0.6-0.1,0.5,0.5,0.6
		c1.8,0,3.6,0,5.4,0c0.4,0,0.4,0,0.4,0.4c0,0.1,0,0.2,0,0.3c0,6,0,12,0,18c0,0.1,0,0.2,0,0.3c0,0.3,0,0.3,0.3,0.3c1.4,0,2.8,0,4.3,0
		c0.3,0,0.3,0,0.4-0.3c0-0.1,0-0.2,0-0.3C196.5,333.3,196.5,330.2,196.5,327.2z"/>
	<path fill="#5E6A6C" d="M0.4,331.7c0-1.2,0-2.3,0-3.5c0-0.4,0-0.4,0.4-0.4c0.9,0,1.9,0,2.8,0c0.2,0,0.3,0.1,0.4,0.3
		c0.2,1.2,0.5,2.5,0.7,3.7c0.1,0.6,0.1,0.6,0.7,0.8c0.8,0.3,1.6,0.5,2.4,0.7c1.6,0.3,3.2,0.2,4.8-0.3c1-0.3,1.9-0.8,2.6-1.6
		c0.9-1,1.2-2.1,0.9-3.4c-0.1-0.6-0.4-1.1-0.8-1.5c-0.6-0.7-1.3-1.1-2.1-1.5c-1-0.5-2-0.9-3.1-1.2c-1.7-0.6-3.3-1.3-4.9-2
		c-1.2-0.6-2.4-1.4-3.2-2.5c-0.9-1.1-1.4-2.4-1.5-3.8c-0.1-1.1-0.1-2.2,0.2-3.3c0.6-2.4,2.1-4,4.3-5.1c1.2-0.6,2.5-0.9,3.8-1.1
		c2.2-0.3,4.4,0,6.6,0.4c1.4,0.3,2.8,0.7,4.2,1.1c0.5,0.1,0.4,0.1,0.4,0.5c-0.1,2.2-0.1,4.5-0.2,6.7c0,0.3,0,0.3-0.4,0.3
		c-0.7,0-1.4,0-2.2,0c-0.3,0-0.3,0-0.4-0.3c-0.4-1.3-0.8-2.6-1.2-3.9c-0.1-0.3-0.2-0.5-0.5-0.5c-1.5-0.4-3.1-0.6-4.7-0.6
		c-1.4,0-2.8,0.4-3.9,1.3c-0.6,0.5-1.1,1.1-1.3,1.9c-0.3,1.4,0,2.6,1.1,3.6c0.8,0.8,1.8,1.3,2.9,1.8c1.3,0.6,2.7,1.1,4.1,1.5
		c1.3,0.4,2.5,1,3.6,1.6c0.9,0.5,1.7,1.2,2.4,2c0.8,0.9,1.3,2,1.5,3.2c0.2,1.5,0.1,3-0.4,4.4c-0.7,2.1-2,3.6-3.9,4.7
		c-1.4,0.8-3,1.3-4.6,1.6c-2.3,0.4-4.6,0.1-6.9-0.3c-1.4-0.3-2.9-0.6-4.2-1.2c-0.5-0.2-0.4-0.2-0.4-0.6C0.4,334,0.4,332.9,0.4,331.7
		z"/>
	<path fill="#5E6A6C" d="M104,316.9c-0.4-0.1-0.8-0.3-1.2-0.4c-0.1,0-0.2-0.1-0.3-0.1c-0.4-0.1-0.4-0.1-0.4-0.5c0-0.6,0-1.1,0-1.7
		c0-0.2,0.1-0.3,0.3-0.3c0.1,0,0.1,0,0.2,0c1.9,0,3.7-0.1,5.6-0.1c1.1,0,2.1-0.1,3.2-0.1c0.4,0,0.4,0,0.4,0.4c0,0.6,0,1.3,0,1.9
		c0,0.4,0,0.4-0.4,0.4c-0.8,0.1-1.6,0.3-2.3,0.4c-0.3,0-0.5,0.2-0.7,0.4c-1.3,2-2.7,4-4.1,6.1c-0.1,0.2-0.2,0.4,0,0.6
		c1.8,3.1,3.5,6.2,5.3,9.3c0.1,0.2,0.3,0.3,0.5,0.4c0.9,0.3,1.8,0.6,2.7,0.9c0.2,0.1,0.3,0.2,0.3,0.4c0,0.6,0,1.2,0,1.8
		c0,0.3,0,0.3-0.3,0.3c-1.8,0-3.5,0-5.3,0c-0.3,0-0.3-0.2-0.4-0.3c-0.7-1.3-1.4-2.5-2.1-3.8c-1.3-2.2-2.5-4.5-3.7-6.7
		c-0.1-0.3-0.3-0.4-0.6-0.4c-1,0-2,0-3,0c-0.4,0-0.4,0-0.4,0.4c0,2.3,0,4.6,0,6.9c0,0.2,0.1,0.4,0.3,0.4c0.8,0.3,1.5,0.6,2.3,0.9
		c0.2,0.1,0.3,0.2,0.3,0.4c0,0.6,0,1.2,0,1.8c0,0.2-0.1,0.3-0.3,0.3c-0.1,0-0.2,0-0.3,0c-3.3,0-6.5,0-9.8,0c-0.1,0-0.1,0-0.2,0
		c-0.4,0-0.4,0-0.4-0.4c0-0.5,0-1.1,0-1.6c0-0.4,0-0.4,0.4-0.5c1-0.3,2-0.6,2.9-0.9c0.4-0.1,0.4-0.1,0.4-0.5c0-8.6,0-17.3,0-25.9
		c0-0.4,0-0.4-0.4-0.5c-1-0.2-2-0.5-3-0.7c-0.2-0.1-0.3-0.1-0.3-0.4c0-0.6,0-1.2,0-1.8c0-0.3,0-0.3,0.3-0.4c0.6,0,1.2,0,1.8-0.1
		c1.8,0,3.6-0.1,5.4-0.1c0.1,0,0.1,0,0.2,0c0.2,0,0.3,0.1,0.2,0.2c0,0.1,0,0.2,0,0.4c0,6,0,12,0,18.1c0,0.6-0.1,0.6,0.6,0.6
		c1,0,1.9,0,2.9,0c0.2,0,0.3,0,0.4-0.2c1-1.7,2-3.4,3-5.1C104,317.1,104.1,317,104,316.9z"/>
	<path fill="#38B9D8" d="M214.5,337.2c-1.3,0-2.6-0.1-4-0.5c-3-0.9-5-2.9-6.1-5.8c-0.6-1.4-0.8-2.9-0.9-4.5c-0.1-1-0.1-1.9,0-2.9
		c0.1-1.6,0.4-3.2,1.1-4.8c1.3-2.8,3.4-4.5,6.4-5.3c1.5-0.4,3.1-0.5,4.7-0.4c1.3,0.1,2.6,0.3,3.8,0.8c2.5,1,4.2,2.7,5.2,5.2
		c0.6,1.4,0.9,2.9,1,4.5c0.1,1.1,0.1,2.2,0,3.4c-0.2,2-0.6,4-1.7,5.7c-1.4,2.2-3.4,3.6-5.9,4.2c-0.4,0.1-0.9,0.2-1.3,0.3
		C216.1,337.2,215.4,337.2,214.5,337.2z M208.7,325.1c0,0.4,0,0.8,0,1.3c0.1,1.1,0.2,2.1,0.6,3.1c0.6,1.7,1.7,2.9,3.5,3.3
		c1,0.3,1.9,0.3,2.9,0.1c1.8-0.3,3.1-1.2,3.9-2.8c0.5-1.1,0.8-2.2,0.9-3.4c0.1-1.3,0.1-2.6-0.1-3.9c-0.1-1-0.4-2-0.9-3
		c-0.7-1.3-1.7-2.1-3.2-2.5c-1.1-0.3-2.3-0.3-3.4,0c-1.3,0.3-2.3,1-3,2.2c-0.3,0.5-0.6,1.1-0.8,1.8
		C208.8,322.6,208.7,323.8,208.7,325.1z"/>
	<path fill="#38B9D8" d="M184,325.2c0,1.8-0.2,3.6-0.8,5.4c-0.8,2.2-2,3.9-4,5.1c-1.1,0.7-2.2,1.1-3.5,1.3c-2,0.4-4.1,0.4-6.1-0.1
		c-3.9-0.9-6.3-3.4-7.3-7.2c-0.5-2-0.6-4.1-0.5-6.2c0.1-1.5,0.4-2.9,0.9-4.2c1.2-2.9,3.3-4.8,6.3-5.6c2.7-0.7,5.3-0.7,8,0.1
		c2.9,0.9,4.9,2.8,6,5.6C183.8,321.1,184,323.1,184,325.2z M178.8,325.1c0-0.6,0-1.3-0.1-2c-0.1-1.2-0.4-2.3-1-3.3
		c-0.6-1.1-1.5-1.9-2.7-2.3c-1.2-0.4-2.3-0.4-3.5-0.2c-1.6,0.3-2.7,1.2-3.5,2.6c-0.6,1.1-0.8,2.2-1,3.4c-0.1,1.2-0.1,2.3,0,3.5
		c0.1,1.1,0.3,2.2,0.8,3.2c0.7,1.5,1.8,2.4,3.4,2.8c1.1,0.2,2.2,0.2,3.3,0c1.4-0.3,2.4-1.1,3.1-2.3c0.3-0.5,0.5-1.1,0.7-1.6
		C178.7,327.7,178.8,326.4,178.8,325.1z"/>
	<path fill="#38B9D8" d="M336.4,325.2c0,3.7,0,7.4,0,11.1c0,0.1,0,0.2,0,0.3c0,0.4,0,0.4-0.4,0.4c-1.4,0-2.8,0-4.1,0
		c-0.4,0-0.4,0-0.4-0.4c0-3,0-6.1,0-9.1c0-0.6,0.1-0.6-0.5-0.6c-2.7,0-5.4,0-8.2,0c-0.1,0-0.2,0-0.3,0c-0.2,0-0.3,0.1-0.3,0.3
		c0,0.1,0,0.2,0,0.4c0,3,0,5.9,0,8.9c0,0.1,0,0.2,0,0.3c0,0.3,0,0.3-0.4,0.3c-1.4,0-2.8,0-4.3,0c-0.4,0-0.4,0-0.4-0.4
		c0-0.8,0-1.7,0-2.5c0-6.7,0-13.3,0-20c0-0.6-0.1-0.6,0.6-0.6c1.3,0,2.6,0,3.9,0c0.5,0,0.5,0,0.5,0.5c0,2.7,0,5.4,0,8.2
		c0,0.6,0,0.5,0.5,0.5c2.7,0,5.4,0,8.2,0c0.1,0,0.2,0,0.3,0c0.2,0,0.2-0.1,0.2-0.2c0-0.1,0-0.2,0-0.4c0-2.7,0-5.3,0-8
		c0-0.1,0-0.2,0-0.3c0-0.3,0-0.3,0.4-0.3c1.4,0,2.8,0,4.1,0c0.5,0,0.5,0,0.5,0.5C336.4,317.7,336.4,321.4,336.4,325.2z"/>
	<path fill="#38B9D8" d="M138.3,325.1c0-3.7,0-7.4,0-11.2c0-0.5-0.1-0.5,0.5-0.5c1.3,0,2.7,0,4,0c0.4,0,0.4,0,0.4,0.4
		c0,2.7,0,5.4,0,8.2c0,0.7-0.1,0.6,0.6,0.6c2.7,0,5.4,0,8.1,0c0.1,0,0.1,0,0.2,0c0.4,0,0.4,0,0.4-0.4c0-2.7,0-5.5,0-8.2
		c0-0.6-0.1-0.5,0.5-0.5c1.3,0,2.6,0,3.9,0c0.1,0,0.2,0,0.3,0c0.1,0,0.2,0.1,0.2,0.2c0,0.1,0,0.2,0,0.3c0,7.5,0,14.9,0,22.4
		c0,0.6,0.1,0.5-0.5,0.5c-1.3,0-2.6,0-3.9,0c-0.1,0-0.2,0-0.4,0c-0.1,0-0.2-0.1-0.2-0.2c0-0.1,0-0.2,0-0.4c0-3,0-6.1,0-9.1
		c0-0.5,0-0.5-0.5-0.5c-2.8,0-5.6,0-8.3,0c0,0,0,0,0,0c-0.4,0-0.4,0-0.4,0.4c0,3,0,6,0,9.1c0,0.7,0.1,0.6-0.6,0.6
		c-1.3,0-2.5,0-3.8,0c-0.6,0-0.6,0.1-0.6-0.5C138.3,332.6,138.3,328.9,138.3,325.1z"/>
	<path fill="#38B9D8" d="M272.3,336.8c-0.1,0.1-0.2,0-0.4,0c-1.5,0-3.1,0-4.6,0c-0.3,0-0.5-0.1-0.7-0.4c-1.7-2.8-3.4-5.5-5.1-8.2
		c-0.2-0.3-0.3-0.4-0.7-0.4c-0.6,0-1.1,0-1.7,0s-0.5,0-0.5,0.5c0,2.6,0,5.2,0,7.9c0,0.6,0.1,0.6-0.6,0.6c-1.3,0-2.5,0-3.8,0
		c-0.1,0-0.2,0-0.4,0c-0.1,0-0.2-0.1-0.2-0.2c0-0.1,0-0.2,0-0.4c0-7.5,0-14.9,0-22.4c0-0.1,0-0.2,0-0.3c0-0.2,0.1-0.2,0.2-0.2
		c0.1,0,0.2,0,0.3,0c2.1,0,4.2,0,6.3,0c1.5,0,3,0.1,4.4,0.5c0.8,0.2,1.5,0.5,2.2,0.9c1.1,0.7,1.9,1.6,2.3,2.9
		c0.5,1.4,0.6,2.8,0.3,4.2c-0.4,1.8-1.5,3.1-3.1,4.1c-0.3,0.2-0.6,0.3-0.9,0.5c-0.1,0.1-0.2,0.1-0.1,0.3c0.1,0.1,0.2,0.2,0.3,0.4
		c2.1,3.1,4.2,6.2,6.3,9.4C272.2,336.7,272.3,336.7,272.3,336.8z M258.7,320.7c0,1,0,1.9,0,2.9c0,0.2,0,0.3,0.3,0.3
		c0.9,0,1.8,0,2.7-0.1c0.6-0.1,1.2-0.2,1.8-0.5c0.7-0.4,1.1-0.9,1.3-1.6c0.1-0.5,0.1-0.9,0.1-1.4c-0.1-1-0.5-1.7-1.4-2.1
		c-0.3-0.1-0.7-0.3-1-0.3c-1.2-0.3-2.3-0.2-3.5-0.2c-0.3,0-0.2,0.2-0.2,0.3C258.7,318.8,258.7,319.7,258.7,320.7z"/>
	<path fill="#38B9D8" d="M248.1,329.8c0,1.9,0,3.7,0,5.6c0,0.4,0,0.4-0.4,0.5c-1.8,0.6-3.7,0.9-5.5,1.1c-1.1,0.1-2.3,0.1-3.4,0.1
		c-1.8-0.1-3.5-0.5-5.1-1.5c-1.8-1.1-3-2.6-3.7-4.5c-0.5-1.3-0.8-2.6-0.9-3.9c-0.1-1.4-0.1-2.7,0-4.1c0.3-2.7,1.3-5.1,3.3-7
		c1.5-1.4,3.2-2.2,5.1-2.6c1.8-0.4,3.7-0.5,5.5-0.3c1.6,0.2,3.2,0.6,4.7,1.2c0.4,0.2,0.4,0.2,0.3,0.6c-0.4,1.1-0.9,2.1-1.3,3.2
		c-0.1,0.3-0.1,0.3-0.4,0.2c-1.2-0.5-2.4-0.9-3.7-1c-1.5-0.2-2.9-0.1-4.3,0.5c-1.9,0.8-3.1,2.3-3.7,4.2c-0.5,1.5-0.5,3.1-0.4,4.7
		c0.1,0.9,0.2,1.8,0.6,2.6c0.4,1.1,1.1,2.1,2.1,2.8c0.8,0.5,1.7,0.8,2.6,0.9c1.2,0.1,2.3,0,3.5-0.2c0.1,0,0.2,0,0.3-0.1
		c0.1,0,0.2-0.1,0.2-0.2c0-0.1,0-0.1,0-0.2c0-1.4,0-2.8,0-4.1c0-0.4,0-0.4-0.4-0.4c-1.2,0-2.4,0-3.6,0c-0.5,0-0.5,0-0.5-0.4
		c0-1.1,0-2.2,0-3.3c0-0.4,0-0.4,0.4-0.4c2.8,0,5.7,0,8.5,0c0.4,0,0.4,0,0.4,0.4C248.1,326,248.1,327.9,248.1,329.8z"/>
	<path fill="#38B9D8" d="M295.7,336.9c-0.3,0-0.5,0-0.8,0c-1.4,0-2.8,0-4.2,0c-0.4,0-0.4,0-0.5-0.4c-0.5-1.6-1-3.2-1.5-4.8
		c-0.1-0.4-0.1-0.4-0.5-0.4c-2.6,0-5.2,0-7.7,0c-0.4,0-0.4,0-0.5,0.4c-0.5,1.6-1,3.2-1.5,4.8c-0.1,0.4-0.1,0.4-0.6,0.4
		c-1.5,0-3,0-4.5,0c-0.1,0-0.2,0-0.3,0c-0.1-0.2,0-0.3,0.1-0.4c1.6-4.5,3.2-9,4.7-13.5c1-3,2.1-6,3.1-8.9c0-0.1,0.1-0.2,0.1-0.4
		c0-0.2,0.2-0.3,0.4-0.3c0.7,0,1.3,0,2,0c1.1,0,2.2,0,3.3,0c0.5,0,0.4,0,0.6,0.4c1,2.9,2.1,5.9,3.1,8.8c1.6,4.6,3.3,9.3,4.9,13.9
		C295.6,336.6,295.6,336.7,295.7,336.9z M284.4,317.2c-1,3.3-2,6.6-3,9.9c2,0,4,0,6.1,0C286.4,323.8,285.3,320.5,284.4,317.2z"/>
	<path fill="#5E6A6C" d="M53,337.3c-1.8,0-3.3-0.2-4.8-0.9c-2.5-1.1-4.1-3-5-5.5c-0.4-1.2-0.6-2.5-0.7-3.8c-0.1-1.6-0.1-3.2,0.3-4.8
		c0.5-2.3,1.4-4.4,3.1-6.1c1.7-1.7,3.9-2.7,6.3-2.9c1.6-0.2,3.2-0.1,4.8,0.4c2.7,0.8,4.6,2.6,5.7,5.2c0.6,1.3,0.9,2.8,1,4.2
		c0.1,1.4,0.1,2.9-0.1,4.3c-0.4,2.7-1.5,5.1-3.5,7c-1.6,1.5-3.4,2.4-5.6,2.7C54.1,337.3,53.4,337.3,53,337.3z M47.1,325.1
		c0,1,0,1.7,0.1,2.5c0.2,1.2,0.4,2.4,1,3.5c0.8,1.4,1.9,2.2,3.5,2.6c0.9,0.2,1.7,0.2,2.6,0.1c1.7-0.2,3-1.1,3.8-2.6
		c0.4-0.8,0.7-1.6,0.8-2.4c0.4-2.1,0.5-4.2,0.2-6.3c-0.1-1.1-0.4-2.1-1-3c-0.7-1.3-1.8-2.1-3.2-2.4c-1.2-0.3-2.4-0.2-3.6,0.1
		c-1.3,0.3-2.2,1.1-2.9,2.2c-0.4,0.6-0.7,1.3-0.9,2.1C47.2,322.6,47.1,323.9,47.1,325.1z"/>
	<path fill="#38B9D8" d="M298.6,325.2c0-3.7,0-7.4,0-11.2c0-0.5,0-0.5,0.5-0.5c2.3,0,4.7,0,7,0c1.4,0,2.8,0.1,4.1,0.6
		c1.3,0.4,2.4,1.1,3.2,2.2c0.8,1,1.2,2.2,1.3,3.5c0.1,1.2,0.1,2.5-0.3,3.7c-0.6,2.1-2,3.5-4,4.4c-1.3,0.5-2.6,0.7-4,0.8
		c-0.8,0-1.6,0-2.4,0c-0.4,0-0.4,0-0.4,0.4c0,2.5,0,4.9,0,7.4c0,0.6,0.1,0.5-0.5,0.5c-1.3,0-2.6,0-4,0c-0.5,0-0.5,0-0.5-0.5
		C298.6,332.6,298.6,328.9,298.6,325.2z M303.6,321c0,1,0,2.1,0,3.1c0,0.3,0,0.3,0.3,0.3c0.5,0,1.1,0,1.6,0c0.7,0,1.5-0.1,2.2-0.4
		c1-0.4,1.7-1.1,1.9-2.3c0.1-0.7,0.1-1.3,0-2c-0.2-1-0.8-1.7-1.8-2c-0.5-0.2-1-0.3-1.5-0.3c-0.8,0-1.6,0-2.4,0c-0.4,0-0.4,0-0.4,0.4
		C303.6,319,303.6,320,303.6,321z"/>
	<path fill="#38B9D8" d="M119.1,325.2c0-3.7,0-7.4,0-11.2c0-0.5-0.1-0.5,0.5-0.5c2.3,0,4.6,0,6.9,0c1.4,0,2.8,0.1,4.2,0.6
		c1.5,0.5,2.8,1.3,3.6,2.7c0.5,0.8,0.8,1.7,0.9,2.7c0.1,1.2,0.1,2.4-0.2,3.5c-0.5,2.3-1.9,3.8-4.1,4.7c-1,0.4-2.1,0.6-3.2,0.7
		c-1.1,0.1-2.2,0.1-3.2,0.1c-0.5,0-0.5,0-0.5,0.5c0,2.4,0,4.9,0,7.3c0,0.6,0,0.5-0.5,0.5c-1.3,0-2.7,0-4,0c-0.4,0-0.4,0-0.4-0.4
		C119.1,332.7,119.1,328.9,119.1,325.2z M124,321c0,1,0,2.1,0,3.1c0,0.3,0,0.3,0.3,0.3c0.6,0,1.1,0,1.7,0c0.7,0,1.3-0.1,2-0.3
		c1.1-0.4,1.9-1.2,2.1-2.4c0.1-0.7,0.1-1.3,0-2c-0.2-1-0.8-1.7-1.8-2c-0.5-0.2-0.9-0.3-1.4-0.3c-0.8,0-1.6,0-2.5,0
		c-0.4,0-0.4,0-0.4,0.4C124,318.9,124,320,124,321z"/>
	<path fill="#5E6A6C" d="M85.6,331.2c0.1,0.2,0.3,0.4,0.4,0.7c0.3,0.5,0.6,1.1,0.9,1.6c0.2,0.3,0.2,0.3-0.1,0.6
		c-1.4,1.1-2.9,1.9-4.6,2.5c-1.1,0.4-2.3,0.7-3.5,0.7c-2.4,0.1-4.6-0.3-6.7-1.6c-2-1.3-3.2-3.1-3.9-5.3c-0.4-1.1-0.6-2.3-0.7-3.4
		c-0.2-2.8,0.1-5.6,1.5-8.1c1.7-3.1,4.3-4.9,7.7-5.5c1.7-0.3,3.3-0.2,4.9,0.1c1.5,0.3,2.9,0.7,4.3,1.3c0.3,0.2,0.3,0.2,0.3,0.6
		c0,1.2-0.1,2.3-0.1,3.5c0,0.6-0.1,1.2-0.1,1.8c0,0.2-0.1,0.3-0.3,0.3c-0.8,0-1.5,0-2.3,0c-0.2,0-0.3-0.1-0.3-0.3
		c-0.1-0.7-0.2-1.4-0.4-2.1c-0.1-0.3-0.1-0.7-0.2-1c0-0.2-0.1-0.3-0.3-0.3c-1.8-0.4-3.6-0.6-5.4-0.2c-2,0.4-3.4,1.6-4.1,3.5
		c-0.4,1.1-0.6,2.2-0.7,3.3c-0.1,1.8,0,3.5,0.5,5.2c0.4,1.4,1.1,2.5,2.2,3.5c0.9,0.7,1.9,1.1,3,1.2c2.2,0.2,4.2-0.3,6.1-1.3
		c0.5-0.3,0.9-0.6,1.3-1C85.3,331.4,85.4,331.3,85.6,331.2z"/>
	<path fill="#38B9D8" d="M339.4,313.5c0.2-0.1,0.3-0.1,0.5-0.1c1.5,0,2.9,0,4.4,0c0.3,0,0.5,0.1,0.6,0.4c1.5,2.9,2.9,5.8,4.4,8.7
		c0.1,0.2,0.1,0.3,0.3,0.5c0.1-0.1,0.2-0.3,0.3-0.4c1.5-2.9,3-5.8,4.4-8.7c0.2-0.3,0.3-0.4,0.7-0.4c1.5,0,2.9,0,4.4,0
		c0.1,0,0.3,0,0.4,0c0.1,0.1,0,0.2-0.1,0.4c-1.1,2.1-2.3,4.2-3.4,6.3c-1.3,2.4-2.7,4.9-4,7.3c-0.1,0.2-0.1,0.4-0.1,0.7
		c0,2.7,0,5.4,0,8.1c0,0.1,0,0.2,0,0.3c0,0.4,0,0.4-0.4,0.4c-1.4,0-2.8,0-4.2,0c-0.4,0-0.4,0-0.4-0.4c0-2.7,0-5.4,0-8.1
		c0-0.3-0.1-0.6-0.2-0.8c-2.4-4.5-4.8-9-7.3-13.5C339.6,313.9,339.5,313.7,339.4,313.5z"/>
	<path fill="#5E6A6C" d="M28.7,324.8c0-2.4,0-4.7,0-7.1c0-0.5,0.1-0.5-0.5-0.5c-1.2,0-2.4,0-3.6,0c-0.3,0-0.3,0-0.3-0.3
		c0-0.7,0-1.5,0-2.2c0-0.2,0.1-0.3,0.3-0.3c1.2-0.1,2.4-0.2,3.7-0.4c0.1,0,0.2,0,0.3,0c0.1,0,0.2-0.1,0.2-0.2c0-0.1,0-0.2,0-0.3
		c0-1.5,0-3.1,0-4.6c0-0.4,0-0.4,0.4-0.5c1.2-0.2,2.4-0.5,3.5-0.7c0.4-0.1,0.5-0.2,0.5,0.4c0,1.7,0,3.5,0,5.2c0,0.1,0,0.2,0,0.3
		c0,0.4,0,0.4,0.4,0.4c1.8,0,3.6,0,5.4,0c0.1,0,0.2,0,0.4,0c0.2,0,0.2,0.1,0.2,0.2c0,0.9,0,1.9,0,2.8c0,0.2-0.1,0.2-0.2,0.2
		c-0.1,0-0.2,0-0.3,0c-1.8,0-3.5,0-5.3,0c-0.1,0-0.2,0-0.3,0c-0.1,0-0.2,0.1-0.2,0.2c0,0.1,0,0.2,0,0.3c0,4.4,0,8.9,0,13.3
		c0,0.3,0,0.6,0,0.9c0.2,1.4,1,2.1,2.5,1.9c0.8-0.1,1.6-0.4,2.3-0.7c0.2-0.1,0.3-0.1,0.5-0.2c0.2-0.1,0.3-0.1,0.4,0.1
		c0.3,0.6,0.6,1.2,0.9,1.8c0.1,0.2,0,0.3-0.1,0.4c-1.7,1.2-3.6,2-5.7,2c-1.2,0-2.3-0.2-3.2-0.9c-1.1-0.8-1.6-1.9-1.8-3.1
		c-0.1-0.8-0.2-1.5-0.2-2.3C28.7,328.9,28.7,326.8,28.7,324.8z"/>
	<path fill="#38B9D8" d="M196.5,327.2c0,3,0,6,0,9.1c0,0.1,0,0.2,0,0.3c0,0.3,0,0.3-0.4,0.3c-1.4,0-2.8,0-4.3,0
		c-0.3,0-0.3,0-0.3-0.3c0-0.1,0-0.2,0-0.3c0-6,0-12,0-18c0-0.1,0-0.2,0-0.3c0-0.4,0-0.4-0.4-0.4c-1.8,0-3.6,0-5.4,0
		c-0.6,0-0.5,0-0.5-0.6c0-1.1,0-2.1,0-3.2c0-0.4,0-0.4,0.4-0.4c1.6,0,3.1,0,4.7,0c4,0,8.1,0,12.1,0c0.5,0,0.5,0,0.5,0.5
		c0,1.1,0,2.1,0,3.2c0,0.4,0,0.4-0.4,0.4c-1.8,0-3.6,0-5.4,0c-0.1,0-0.2,0-0.3,0c-0.2,0-0.3,0.1-0.3,0.3c0,0.1,0,0.2,0,0.4
		C196.5,321.2,196.5,324.2,196.5,327.2z"/>
	<path fill="#F1F2F3" d="M208.7,325.1c0-1.3,0.1-2.5,0.4-3.8c0.2-0.6,0.4-1.2,0.8-1.8c0.7-1.1,1.7-1.9,3-2.2c1.1-0.3,2.3-0.3,3.4,0
		c1.4,0.3,2.5,1.2,3.2,2.5c0.5,0.9,0.8,1.9,0.9,3c0.2,1.3,0.2,2.6,0.1,3.9c-0.1,1.2-0.3,2.3-0.9,3.4c-0.8,1.6-2.1,2.5-3.9,2.8
		c-1,0.1-2,0.1-2.9-0.1c-1.8-0.5-2.8-1.7-3.5-3.3c-0.4-1-0.5-2-0.6-3.1C208.7,326,208.7,325.5,208.7,325.1z"/>
	<path fill="#F1F2F3" d="M178.8,325.1c0,1.3-0.1,2.6-0.4,3.8c-0.2,0.6-0.4,1.1-0.7,1.6c-0.7,1.2-1.7,2-3.1,2.3
		c-1.1,0.3-2.2,0.3-3.3,0c-1.6-0.4-2.7-1.3-3.4-2.8c-0.5-1-0.7-2.1-0.8-3.2c-0.1-1.2-0.1-2.3,0-3.5c0.1-1.2,0.4-2.4,1-3.4
		c0.8-1.4,1.9-2.3,3.5-2.6c1.2-0.2,2.4-0.2,3.5,0.2c1.2,0.4,2.1,1.2,2.7,2.3c0.6,1,0.8,2.1,1,3.3
		C178.8,323.8,178.8,324.5,178.8,325.1z"/>
	<path fill="#F1F2F3" d="M258.7,320.7c0-0.9,0-1.9,0-2.8c0-0.2,0-0.3,0.2-0.3c1.2,0,2.3-0.1,3.5,0.2c0.3,0.1,0.7,0.2,1,0.3
		c0.9,0.4,1.4,1.2,1.4,2.1c0,0.5,0,0.9-0.1,1.4c-0.2,0.7-0.6,1.3-1.3,1.6c-0.6,0.3-1.2,0.5-1.8,0.5c-0.9,0.1-1.8,0.1-2.7,0.1
		c-0.3,0-0.3-0.1-0.3-0.3C258.7,322.6,258.7,321.6,258.7,320.7z"/>
	<path fill="#F1F2F3" d="M284.4,317.2c1,3.3,2.1,6.6,3.1,9.9c-2,0-4,0-6.1,0C282.4,323.8,283.4,320.5,284.4,317.2z"/>
	<path fill="#F1F2F3" d="M47.1,325.1c0-1.1,0.1-2.5,0.5-3.8c0.2-0.7,0.5-1.4,0.9-2.1c0.7-1.1,1.7-1.8,2.9-2.2
		c1.2-0.3,2.4-0.4,3.6-0.1c1.4,0.3,2.5,1.2,3.2,2.4c0.5,0.9,0.8,2,1,3c0.3,2.1,0.3,4.2-0.2,6.3c-0.2,0.8-0.4,1.6-0.8,2.4
		c-0.8,1.5-2.1,2.3-3.8,2.6c-0.9,0.1-1.7,0.1-2.6-0.1c-1.6-0.3-2.7-1.2-3.5-2.6c-0.6-1.1-0.9-2.3-1-3.5
		C47.1,326.8,47.1,326.1,47.1,325.1z"/>
	<path fill="#F1F2F3" d="M303.6,321c0-1,0-2.1,0-3.1c0-0.4,0-0.4,0.4-0.4c0.8,0,1.6,0,2.4,0c0.5,0,1,0.1,1.5,0.3c1,0.3,1.6,1,1.8,2
		c0.2,0.7,0.2,1.3,0,2c-0.2,1.1-0.9,1.8-1.9,2.3c-0.7,0.3-1.4,0.4-2.2,0.4c-0.5,0-1.1,0-1.6,0c-0.3,0-0.3,0-0.3-0.3
		C303.6,323.1,303.6,322.1,303.6,321z"/>
	<path fill="#F1F2F3" d="M124,321c0-1,0-2.1,0-3.1c0-0.4,0-0.4,0.4-0.4c0.8,0,1.6,0,2.5,0c0.5,0,1,0.1,1.4,0.3c1,0.3,1.6,1,1.8,2
		c0.1,0.7,0.2,1.3,0,2c-0.2,1.2-1,2-2.1,2.4c-0.6,0.2-1.3,0.3-2,0.3c-0.6,0-1.1,0-1.7,0c-0.3,0-0.3,0-0.3-0.3
		C124,323.1,124,322.1,124,321z"/>
</g>
</svg>
